<svg width="301" height="350" fill="none" xmlns="http://www.w3.org/2000/svg">
  <circle cx="2.5" cy="347.5" r="2.5" transform="rotate(-90 2.5 347.5)" fill="#0D58A6" fill-opacity=".1"/>
  <circle cx="2.5" cy="324.5" r="2.5" transform="rotate(-90 2.5 324.5)" fill="#0D58A6" fill-opacity=".1"/>
  <circle cx="2.5" cy="301.5" r="2.5" transform="rotate(-90 2.5 301.5)" fill="#0D58A6" fill-opacity=".1"/>
  <circle cx="2.5" cy="278.5" r="2.5" transform="rotate(-90 2.5 278.5)" fill="#0D58A6" fill-opacity=".1"/>
  <circle cx="2.5" cy="255.5" r="2.5" transform="rotate(-90 2.5 255.5)" fill="#0D58A6" fill-opacity=".1"/>
  <circle cx="2.5" cy="232.5" r="2.5" transform="rotate(-90 2.5 232.5)" fill="#0D58A6" fill-opacity=".1"/>
  <circle cx="2.5" cy="209.5" r="2.5" transform="rotate(-90 2.5 209.5)" fill="#0D58A6" fill-opacity=".1"/>
  <circle cx="2.5" cy="186.5" r="2.5" transform="rotate(-90 2.5 186.5)" fill="#0D58A6" fill-opacity=".1"/>
  <circle cx="2.5" cy="163.5" r="2.5" transform="rotate(-90 2.5 163.5)" fill="#0D58A6" fill-opacity=".1"/>
  <circle cx="2.5" cy="140.5" r="2.5" transform="rotate(-90 2.5 140.5)" fill="#0D58A6" fill-opacity=".1"/>
  <circle cx="2.5" cy="117.5" r="2.5" transform="rotate(-90 2.5 117.5)" fill="#0D58A6" fill-opacity=".1"/>
  <circle cx="2.5" cy="94.5" r="2.5" transform="rotate(-90 2.5 94.5)" fill="#0D58A6" fill-opacity=".1"/>
  <circle cx="2.5" cy="71.5" r="2.5" transform="rotate(-90 2.5 71.5)" fill="#0D58A6" fill-opacity=".1"/>
  <circle cx="2.5" cy="48.5" r="2.5" transform="rotate(-90 2.5 48.5)" fill="#0D58A6" fill-opacity=".1"/>
  <circle cx="2.5" cy="25.5" r="2.5" transform="rotate(-90 2.5 25.5)" fill="#0D58A6" fill-opacity=".1"/>
  <circle cx="2.5" cy="2.5" r="2.5" transform="rotate(-90 2.5 2.5)" fill="#0D58A6" fill-opacity=".1"/>
  <circle cx="25.5" cy="347.5" r="2.5" transform="rotate(-90 25.5 347.5)" fill="#0D58A6" fill-opacity=".1"/>
  <circle cx="25.5" cy="324.5" r="2.5" transform="rotate(-90 25.5 324.5)" fill="#0D58A6" fill-opacity=".1"/>
  <circle cx="25.5" cy="301.5" r="2.5" transform="rotate(-90 25.5 301.5)" fill="#0D58A6" fill-opacity=".1"/>
  <circle cx="25.5" cy="278.5" r="2.5" transform="rotate(-90 25.5 278.5)" fill="#0D58A6" fill-opacity=".1"/>
  <circle cx="25.5" cy="255.5" r="2.5" transform="rotate(-90 25.5 255.5)" fill="#0D58A6" fill-opacity=".1"/>
  <circle cx="25.5" cy="232.5" r="2.5" transform="rotate(-90 25.5 232.5)" fill="#0D58A6" fill-opacity=".1"/>
  <circle cx="25.5" cy="209.5" r="2.5" transform="rotate(-90 25.5 209.5)" fill="#0D58A6" fill-opacity=".1"/>
  <circle cx="25.5" cy="186.5" r="2.5" transform="rotate(-90 25.5 186.5)" fill="#0D58A6" fill-opacity=".1"/>
  <circle cx="25.5" cy="163.5" r="2.5" transform="rotate(-90 25.5 163.5)" fill="#0D58A6" fill-opacity=".1"/>
  <circle cx="25.5" cy="140.5" r="2.5" transform="rotate(-90 25.5 140.5)" fill="#0D58A6" fill-opacity=".1"/>
  <circle cx="25.5" cy="117.5" r="2.5" transform="rotate(-90 25.5 117.5)" fill="#0D58A6" fill-opacity=".1"/>
  <circle cx="25.5" cy="94.5" r="2.5" transform="rotate(-90 25.5 94.5)" fill="#0D58A6" fill-opacity=".1"/>
  <circle cx="25.5" cy="71.5" r="2.5" transform="rotate(-90 25.5 71.5)" fill="#0D58A6" fill-opacity=".1"/>
  <circle cx="25.5" cy="48.5" r="2.5" transform="rotate(-90 25.5 48.5)" fill="#0D58A6" fill-opacity=".1"/>
  <circle cx="25.5" cy="25.5" r="2.5" transform="rotate(-90 25.5 25.5)" fill="#0D58A6" fill-opacity=".1"/>
  <circle cx="25.5" cy="2.5" r="2.5" transform="rotate(-90 25.5 2.5)" fill="#0D58A6" fill-opacity=".1"/>
  <circle cx="48.5" cy="347.5" r="2.5" transform="rotate(-90 48.5 347.5)" fill="#0D58A6" fill-opacity=".1"/>
  <circle cx="48.5" cy="324.5" r="2.5" transform="rotate(-90 48.5 324.5)" fill="#0D58A6" fill-opacity=".1"/>
  <circle cx="48.5" cy="301.5" r="2.5" transform="rotate(-90 48.5 301.5)" fill="#0D58A6" fill-opacity=".1"/>
  <circle cx="48.5" cy="278.5" r="2.5" transform="rotate(-90 48.5 278.5)" fill="#0D58A6" fill-opacity=".1"/>
  <circle cx="48.5" cy="255.5" r="2.5" transform="rotate(-90 48.5 255.5)" fill="#0D58A6" fill-opacity=".1"/>
  <circle cx="48.5" cy="232.5" r="2.5" transform="rotate(-90 48.5 232.5)" fill="#0D58A6" fill-opacity=".1"/>
  <circle cx="48.5" cy="209.5" r="2.5" transform="rotate(-90 48.5 209.5)" fill="#0D58A6" fill-opacity=".1"/>
  <circle cx="48.5" cy="186.5" r="2.5" transform="rotate(-90 48.5 186.5)" fill="#0D58A6" fill-opacity=".1"/>
  <circle cx="48.5" cy="163.5" r="2.5" transform="rotate(-90 48.5 163.5)" fill="#0D58A6" fill-opacity=".1"/>
  <circle cx="48.5" cy="140.5" r="2.5" transform="rotate(-90 48.5 140.5)" fill="#0D58A6" fill-opacity=".1"/>
  <circle cx="48.5" cy="117.5" r="2.5" transform="rotate(-90 48.5 117.5)" fill="#0D58A6" fill-opacity=".1"/>
  <circle cx="48.5" cy="94.5" r="2.5" transform="rotate(-90 48.5 94.5)" fill="#0D58A6" fill-opacity=".1"/>
  <circle cx="48.5" cy="71.5" r="2.5" transform="rotate(-90 48.5 71.5)" fill="#0D58A6" fill-opacity=".1"/>
  <circle cx="48.5" cy="48.5" r="2.5" transform="rotate(-90 48.5 48.5)" fill="#0D58A6" fill-opacity=".1"/>
  <circle cx="48.5" cy="25.5" r="2.5" transform="rotate(-90 48.5 25.5)" fill="#0D58A6" fill-opacity=".1"/>
  <circle cx="48.5" cy="2.5" r="2.5" transform="rotate(-90 48.5 2.5)" fill="#0D58A6" fill-opacity=".1"/>
  <circle cx="71.5" cy="347.5" r="2.5" transform="rotate(-90 71.5 347.5)" fill="#0D58A6" fill-opacity=".1"/>
  <circle cx="71.5" cy="324.5" r="2.5" transform="rotate(-90 71.5 324.5)" fill="#0D58A6" fill-opacity=".1"/>
  <circle cx="71.5" cy="301.5" r="2.5" transform="rotate(-90 71.5 301.5)" fill="#0D58A6" fill-opacity=".1"/>
  <circle cx="71.5" cy="278.5" r="2.5" transform="rotate(-90 71.5 278.5)" fill="#0D58A6" fill-opacity=".1"/>
  <circle cx="71.5" cy="255.5" r="2.5" transform="rotate(-90 71.5 255.5)" fill="#0D58A6" fill-opacity=".1"/>
  <circle cx="71.5" cy="232.5" r="2.5" transform="rotate(-90 71.5 232.5)" fill="#0D58A6" fill-opacity=".1"/>
  <circle cx="71.5" cy="209.5" r="2.5" transform="rotate(-90 71.5 209.5)" fill="#0D58A6" fill-opacity=".1"/>
  <circle cx="71.5" cy="186.5" r="2.5" transform="rotate(-90 71.5 186.5)" fill="#0D58A6" fill-opacity=".1"/>
  <circle cx="71.5" cy="163.5" r="2.5" transform="rotate(-90 71.5 163.5)" fill="#0D58A6" fill-opacity=".1"/>
  <circle cx="71.5" cy="140.5" r="2.5" transform="rotate(-90 71.5 140.5)" fill="#0D58A6" fill-opacity=".1"/>
  <circle cx="71.5" cy="117.5" r="2.5" transform="rotate(-90 71.5 117.5)" fill="#0D58A6" fill-opacity=".1"/>
  <circle cx="71.5" cy="94.5" r="2.5" transform="rotate(-90 71.5 94.5)" fill="#0D58A6" fill-opacity=".1"/>
  <circle cx="71.5" cy="71.5" r="2.5" transform="rotate(-90 71.5 71.5)" fill="#0D58A6" fill-opacity=".1"/>
  <circle cx="71.5" cy="48.5" r="2.5" transform="rotate(-90 71.5 48.5)" fill="#0D58A6" fill-opacity=".1"/>
  <circle cx="71.5" cy="25.5" r="2.5" transform="rotate(-90 71.5 25.5)" fill="#0D58A6" fill-opacity=".1"/>
  <circle cx="71.5" cy="2.5" r="2.5" transform="rotate(-90 71.5 2.5)" fill="#0D58A6" fill-opacity=".1"/>
  <circle cx="94.5" cy="347.5" r="2.5" transform="rotate(-90 94.5 347.5)" fill="#0D58A6" fill-opacity=".1"/>
  <circle cx="94.5" cy="324.5" r="2.5" transform="rotate(-90 94.5 324.5)" fill="#0D58A6" fill-opacity=".1"/>
  <circle cx="94.5" cy="301.5" r="2.5" transform="rotate(-90 94.5 301.5)" fill="#0D58A6" fill-opacity=".1"/>
  <circle cx="94.5" cy="278.5" r="2.5" transform="rotate(-90 94.5 278.5)" fill="#0D58A6" fill-opacity=".1"/>
  <circle cx="94.5" cy="255.5" r="2.5" transform="rotate(-90 94.5 255.5)" fill="#0D58A6" fill-opacity=".1"/>
  <circle cx="94.5" cy="232.5" r="2.5" transform="rotate(-90 94.5 232.5)" fill="#0D58A6" fill-opacity=".1"/>
  <circle cx="94.5" cy="209.5" r="2.5" transform="rotate(-90 94.5 209.5)" fill="#0D58A6" fill-opacity=".1"/>
  <circle cx="94.5" cy="186.5" r="2.5" transform="rotate(-90 94.5 186.5)" fill="#0D58A6" fill-opacity=".1"/>
  <circle cx="94.5" cy="163.5" r="2.5" transform="rotate(-90 94.5 163.5)" fill="#0D58A6" fill-opacity=".1"/>
  <circle cx="94.5" cy="140.5" r="2.5" transform="rotate(-90 94.5 140.5)" fill="#0D58A6" fill-opacity=".1"/>
  <circle cx="94.5" cy="117.5" r="2.5" transform="rotate(-90 94.5 117.5)" fill="#0D58A6" fill-opacity=".1"/>
  <circle cx="94.5" cy="94.5" r="2.5" transform="rotate(-90 94.5 94.5)" fill="#0D58A6" fill-opacity=".1"/>
  <circle cx="94.5" cy="71.5" r="2.5" transform="rotate(-90 94.5 71.5)" fill="#0D58A6" fill-opacity=".1"/>
  <circle cx="94.5" cy="48.5" r="2.5" transform="rotate(-90 94.5 48.5)" fill="#0D58A6" fill-opacity=".1"/>
  <circle cx="94.5" cy="25.5" r="2.5" transform="rotate(-90 94.5 25.5)" fill="#0D58A6" fill-opacity=".1"/>
  <circle cx="94.5" cy="2.5" r="2.5" transform="rotate(-90 94.5 2.5)" fill="#0D58A6" fill-opacity=".1"/>
  <circle cx="117.5" cy="347.5" r="2.5" transform="rotate(-90 117.5 347.5)" fill="#0D58A6" fill-opacity=".1"/>
  <circle cx="117.5" cy="324.5" r="2.5" transform="rotate(-90 117.5 324.5)" fill="#0D58A6" fill-opacity=".1"/>
  <circle cx="117.5" cy="301.5" r="2.5" transform="rotate(-90 117.5 301.5)" fill="#0D58A6" fill-opacity=".1"/>
  <circle cx="117.5" cy="278.5" r="2.5" transform="rotate(-90 117.5 278.5)" fill="#0D58A6" fill-opacity=".1"/>
  <circle cx="117.5" cy="255.5" r="2.5" transform="rotate(-90 117.5 255.5)" fill="#0D58A6" fill-opacity=".1"/>
  <circle cx="117.5" cy="232.5" r="2.5" transform="rotate(-90 117.5 232.5)" fill="#0D58A6" fill-opacity=".1"/>
  <circle cx="117.5" cy="209.5" r="2.5" transform="rotate(-90 117.5 209.5)" fill="#0D58A6" fill-opacity=".1"/>
  <circle cx="117.5" cy="186.5" r="2.5" transform="rotate(-90 117.5 186.5)" fill="#0D58A6" fill-opacity=".1"/>
  <circle cx="117.5" cy="163.5" r="2.5" transform="rotate(-90 117.5 163.5)" fill="#0D58A6" fill-opacity=".1"/>
  <circle cx="117.5" cy="140.5" r="2.5" transform="rotate(-90 117.5 140.5)" fill="#0D58A6" fill-opacity=".1"/>
  <circle cx="117.5" cy="117.5" r="2.5" transform="rotate(-90 117.5 117.5)" fill="#0D58A6" fill-opacity=".1"/>
  <circle cx="117.5" cy="94.5" r="2.5" transform="rotate(-90 117.5 94.5)" fill="#0D58A6" fill-opacity=".1"/>
  <circle cx="117.5" cy="71.5" r="2.5" transform="rotate(-90 117.5 71.5)" fill="#0D58A6" fill-opacity=".1"/>
  <circle cx="117.5" cy="48.5" r="2.5" transform="rotate(-90 117.5 48.5)" fill="#0D58A6" fill-opacity=".1"/>
  <circle cx="117.5" cy="25.5" r="2.5" transform="rotate(-90 117.5 25.5)" fill="#0D58A6" fill-opacity=".1"/>
  <circle cx="117.5" cy="2.5" r="2.5" transform="rotate(-90 117.5 2.5)" fill="#0D58A6" fill-opacity=".1"/>
  <circle cx="140.5" cy="347.5" r="2.5" transform="rotate(-90 140.5 347.5)" fill="#0D58A6" fill-opacity=".1"/>
  <circle cx="140.5" cy="324.5" r="2.5" transform="rotate(-90 140.5 324.5)" fill="#0D58A6" fill-opacity=".1"/>
  <circle cx="140.5" cy="301.5" r="2.5" transform="rotate(-90 140.5 301.5)" fill="#0D58A6" fill-opacity=".1"/>
  <circle cx="140.5" cy="278.5" r="2.5" transform="rotate(-90 140.5 278.5)" fill="#0D58A6" fill-opacity=".1"/>
  <circle cx="140.5" cy="255.5" r="2.5" transform="rotate(-90 140.5 255.5)" fill="#0D58A6" fill-opacity=".1"/>
  <circle cx="140.5" cy="232.5" r="2.5" transform="rotate(-90 140.5 232.5)" fill="#0D58A6" fill-opacity=".1"/>
  <circle cx="140.5" cy="209.5" r="2.5" transform="rotate(-90 140.5 209.5)" fill="#0D58A6" fill-opacity=".1"/>
  <circle cx="140.5" cy="186.5" r="2.5" transform="rotate(-90 140.5 186.5)" fill="#0D58A6" fill-opacity=".1"/>
  <circle cx="140.5" cy="163.5" r="2.5" transform="rotate(-90 140.5 163.5)" fill="#0D58A6" fill-opacity=".1"/>
  <circle cx="140.5" cy="140.5" r="2.5" transform="rotate(-90 140.5 140.5)" fill="#0D58A6" fill-opacity=".1"/>
  <circle cx="140.5" cy="117.5" r="2.5" transform="rotate(-90 140.5 117.5)" fill="#0D58A6" fill-opacity=".1"/>
  <circle cx="140.5" cy="94.5" r="2.5" transform="rotate(-90 140.5 94.5)" fill="#0D58A6" fill-opacity=".1"/>
  <circle cx="140.5" cy="71.5" r="2.5" transform="rotate(-90 140.5 71.5)" fill="#0D58A6" fill-opacity=".1"/>
  <circle cx="140.5" cy="48.5" r="2.5" transform="rotate(-90 140.5 48.5)" fill="#0D58A6" fill-opacity=".1"/>
  <circle cx="140.5" cy="25.5" r="2.5" transform="rotate(-90 140.5 25.5)" fill="#0D58A6" fill-opacity=".1"/>
  <circle cx="140.5" cy="2.5" r="2.5" transform="rotate(-90 140.5 2.5)" fill="#0D58A6" fill-opacity=".1"/>
  <circle cx="163.5" cy="347.5" r="2.5" transform="rotate(-90 163.5 347.5)" fill="#0D58A6" fill-opacity=".1"/>
  <circle cx="163.5" cy="324.5" r="2.5" transform="rotate(-90 163.5 324.5)" fill="#0D58A6" fill-opacity=".1"/>
  <circle cx="163.5" cy="301.5" r="2.5" transform="rotate(-90 163.5 301.5)" fill="#0D58A6" fill-opacity=".1"/>
  <circle cx="163.5" cy="278.5" r="2.5" transform="rotate(-90 163.5 278.5)" fill="#0D58A6" fill-opacity=".1"/>
  <circle cx="163.5" cy="255.5" r="2.5" transform="rotate(-90 163.5 255.5)" fill="#0D58A6" fill-opacity=".1"/>
  <circle cx="163.5" cy="232.5" r="2.5" transform="rotate(-90 163.5 232.5)" fill="#0D58A6" fill-opacity=".1"/>
  <circle cx="163.5" cy="209.5" r="2.5" transform="rotate(-90 163.5 209.5)" fill="#0D58A6" fill-opacity=".1"/>
  <circle cx="163.5" cy="186.5" r="2.5" transform="rotate(-90 163.5 186.5)" fill="#0D58A6" fill-opacity=".1"/>
  <circle cx="163.5" cy="163.5" r="2.5" transform="rotate(-90 163.5 163.5)" fill="#0D58A6" fill-opacity=".1"/>
  <circle cx="163.5" cy="140.5" r="2.5" transform="rotate(-90 163.5 140.5)" fill="#0D58A6" fill-opacity=".1"/>
  <circle cx="163.5" cy="117.5" r="2.5" transform="rotate(-90 163.5 117.5)" fill="#0D58A6" fill-opacity=".1"/>
  <circle cx="163.5" cy="94.5" r="2.5" transform="rotate(-90 163.5 94.5)" fill="#0D58A6" fill-opacity=".1"/>
  <circle cx="163.5" cy="71.5" r="2.5" transform="rotate(-90 163.5 71.5)" fill="#0D58A6" fill-opacity=".1"/>
  <circle cx="163.5" cy="48.5" r="2.5" transform="rotate(-90 163.5 48.5)" fill="#0D58A6" fill-opacity=".1"/>
  <circle cx="163.5" cy="25.5" r="2.5" transform="rotate(-90 163.5 25.5)" fill="#0D58A6" fill-opacity=".1"/>
  <circle cx="163.5" cy="2.5" r="2.5" transform="rotate(-90 163.5 2.5)" fill="#0D58A6" fill-opacity=".1"/>
  <circle cx="186.5" cy="347.5" r="2.5" transform="rotate(-90 186.5 347.5)" fill="#0D58A6" fill-opacity=".1"/>
  <circle cx="186.5" cy="324.5" r="2.5" transform="rotate(-90 186.5 324.5)" fill="#0D58A6" fill-opacity=".1"/>
  <circle cx="186.5" cy="301.5" r="2.5" transform="rotate(-90 186.5 301.5)" fill="#0D58A6" fill-opacity=".1"/>
  <circle cx="186.5" cy="278.5" r="2.5" transform="rotate(-90 186.5 278.5)" fill="#0D58A6" fill-opacity=".1"/>
  <circle cx="186.5" cy="255.5" r="2.5" transform="rotate(-90 186.5 255.5)" fill="#0D58A6" fill-opacity=".1"/>
  <circle cx="186.5" cy="232.5" r="2.5" transform="rotate(-90 186.5 232.5)" fill="#0D58A6" fill-opacity=".1"/>
  <circle cx="186.5" cy="209.5" r="2.5" transform="rotate(-90 186.5 209.5)" fill="#0D58A6" fill-opacity=".1"/>
  <circle cx="186.5" cy="186.5" r="2.5" transform="rotate(-90 186.5 186.5)" fill="#0D58A6" fill-opacity=".1"/>
  <circle cx="186.5" cy="163.5" r="2.5" transform="rotate(-90 186.5 163.5)" fill="#0D58A6" fill-opacity=".1"/>
  <circle cx="186.5" cy="140.5" r="2.5" transform="rotate(-90 186.5 140.5)" fill="#0D58A6" fill-opacity=".1"/>
  <circle cx="186.5" cy="117.5" r="2.5" transform="rotate(-90 186.5 117.5)" fill="#0D58A6" fill-opacity=".1"/>
  <circle cx="186.5" cy="94.5" r="2.5" transform="rotate(-90 186.5 94.5)" fill="#0D58A6" fill-opacity=".1"/>
  <circle cx="186.5" cy="71.5" r="2.5" transform="rotate(-90 186.5 71.5)" fill="#0D58A6" fill-opacity=".1"/>
  <circle cx="186.5" cy="48.5" r="2.5" transform="rotate(-90 186.5 48.5)" fill="#0D58A6" fill-opacity=".1"/>
  <circle cx="186.5" cy="25.5" r="2.5" transform="rotate(-90 186.5 25.5)" fill="#0D58A6" fill-opacity=".1"/>
  <circle cx="186.5" cy="2.5" r="2.5" transform="rotate(-90 186.5 2.5)" fill="#0D58A6" fill-opacity=".1"/>
  <circle cx="209.5" cy="347.5" r="2.5" transform="rotate(-90 209.5 347.5)" fill="#0D58A6" fill-opacity=".1"/>
  <circle cx="209.5" cy="324.5" r="2.5" transform="rotate(-90 209.5 324.5)" fill="#0D58A6" fill-opacity=".1"/>
  <circle cx="209.5" cy="301.5" r="2.5" transform="rotate(-90 209.5 301.5)" fill="#0D58A6" fill-opacity=".1"/>
  <circle cx="209.5" cy="278.5" r="2.5" transform="rotate(-90 209.5 278.5)" fill="#0D58A6" fill-opacity=".1"/>
  <circle cx="209.5" cy="255.5" r="2.5" transform="rotate(-90 209.5 255.5)" fill="#0D58A6" fill-opacity=".1"/>
  <circle cx="209.5" cy="232.5" r="2.5" transform="rotate(-90 209.5 232.5)" fill="#0D58A6" fill-opacity=".1"/>
  <circle cx="209.5" cy="209.5" r="2.5" transform="rotate(-90 209.5 209.5)" fill="#0D58A6" fill-opacity=".1"/>
  <circle cx="209.5" cy="186.5" r="2.5" transform="rotate(-90 209.5 186.5)" fill="#0D58A6" fill-opacity=".1"/>
  <circle cx="209.5" cy="163.5" r="2.5" transform="rotate(-90 209.5 163.5)" fill="#0D58A6" fill-opacity=".1"/>
  <circle cx="209.5" cy="140.5" r="2.5" transform="rotate(-90 209.5 140.5)" fill="#0D58A6" fill-opacity=".1"/>
  <circle cx="209.5" cy="117.5" r="2.5" transform="rotate(-90 209.5 117.5)" fill="#0D58A6" fill-opacity=".1"/>
  <circle cx="209.5" cy="94.5" r="2.5" transform="rotate(-90 209.5 94.5)" fill="#0D58A6" fill-opacity=".1"/>
  <circle cx="209.5" cy="71.5" r="2.5" transform="rotate(-90 209.5 71.5)" fill="#0D58A6" fill-opacity=".1"/>
  <circle cx="209.5" cy="48.5" r="2.5" transform="rotate(-90 209.5 48.5)" fill="#0D58A6" fill-opacity=".1"/>
  <circle cx="209.5" cy="25.5" r="2.5" transform="rotate(-90 209.5 25.5)" fill="#0D58A6" fill-opacity=".1"/>
  <circle cx="209.5" cy="2.5" r="2.5" transform="rotate(-90 209.5 2.5)" fill="#0D58A6" fill-opacity=".1"/>
  <circle cx="232.5" cy="347.5" r="2.5" transform="rotate(-90 232.5 347.5)" fill="#0D58A6" fill-opacity=".1"/>
  <circle cx="232.5" cy="324.5" r="2.5" transform="rotate(-90 232.5 324.5)" fill="#0D58A6" fill-opacity=".1"/>
  <circle cx="232.5" cy="301.5" r="2.5" transform="rotate(-90 232.5 301.5)" fill="#0D58A6" fill-opacity=".1"/>
  <circle cx="232.5" cy="278.5" r="2.5" transform="rotate(-90 232.5 278.5)" fill="#0D58A6" fill-opacity=".1"/>
  <circle cx="232.5" cy="255.5" r="2.5" transform="rotate(-90 232.5 255.5)" fill="#0D58A6" fill-opacity=".1"/>
  <circle cx="232.5" cy="232.5" r="2.5" transform="rotate(-90 232.5 232.5)" fill="#0D58A6" fill-opacity=".1"/>
  <circle cx="232.5" cy="209.5" r="2.5" transform="rotate(-90 232.5 209.5)" fill="#0D58A6" fill-opacity=".1"/>
  <circle cx="232.5" cy="186.5" r="2.5" transform="rotate(-90 232.5 186.5)" fill="#0D58A6" fill-opacity=".1"/>
  <circle cx="232.5" cy="163.5" r="2.5" transform="rotate(-90 232.5 163.5)" fill="#0D58A6" fill-opacity=".1"/>
  <circle cx="232.5" cy="140.5" r="2.5" transform="rotate(-90 232.5 140.5)" fill="#0D58A6" fill-opacity=".1"/>
  <circle cx="232.5" cy="117.5" r="2.5" transform="rotate(-90 232.5 117.5)" fill="#0D58A6" fill-opacity=".1"/>
  <circle cx="232.5" cy="94.5" r="2.5" transform="rotate(-90 232.5 94.5)" fill="#0D58A6" fill-opacity=".1"/>
  <circle cx="232.5" cy="71.5" r="2.5" transform="rotate(-90 232.5 71.5)" fill="#0D58A6" fill-opacity=".1"/>
  <circle cx="232.5" cy="48.5" r="2.5" transform="rotate(-90 232.5 48.5)" fill="#0D58A6" fill-opacity=".1"/>
  <circle cx="232.5" cy="25.5" r="2.5" transform="rotate(-90 232.5 25.5)" fill="#0D58A6" fill-opacity=".1"/>
  <circle cx="232.5" cy="2.5" r="2.5" transform="rotate(-90 232.5 2.5)" fill="#0D58A6" fill-opacity=".1"/>
  <circle cx="252.5" cy="347.5" r="2.5" transform="rotate(-90 252.5 347.5)" fill="#0D58A6" fill-opacity=".1"/>
  <circle cx="252.5" cy="324.5" r="2.5" transform="rotate(-90 252.5 324.5)" fill="#0D58A6" fill-opacity=".1"/>
  <circle cx="252.5" cy="301.5" r="2.5" transform="rotate(-90 252.5 301.5)" fill="#0D58A6" fill-opacity=".1"/>
  <circle cx="252.5" cy="278.5" r="2.5" transform="rotate(-90 252.5 278.5)" fill="#0D58A6" fill-opacity=".1"/>
  <circle cx="252.5" cy="255.5" r="2.5" transform="rotate(-90 252.5 255.5)" fill="#0D58A6" fill-opacity=".1"/>
  <circle cx="252.5" cy="232.5" r="2.5" transform="rotate(-90 252.5 232.5)" fill="#0D58A6" fill-opacity=".1"/>
  <circle cx="252.5" cy="209.5" r="2.5" transform="rotate(-90 252.5 209.5)" fill="#0D58A6" fill-opacity=".1"/>
  <circle cx="252.5" cy="186.5" r="2.5" transform="rotate(-90 252.5 186.5)" fill="#0D58A6" fill-opacity=".1"/>
  <circle cx="252.5" cy="163.5" r="2.5" transform="rotate(-90 252.5 163.5)" fill="#0D58A6" fill-opacity=".1"/>
  <circle cx="252.5" cy="140.5" r="2.5" transform="rotate(-90 252.5 140.5)" fill="#0D58A6" fill-opacity=".1"/>
  <circle cx="252.5" cy="117.5" r="2.5" transform="rotate(-90 252.5 117.5)" fill="#0D58A6" fill-opacity=".1"/>
  <circle cx="252.5" cy="94.5" r="2.5" transform="rotate(-90 252.5 94.5)" fill="#0D58A6" fill-opacity=".1"/>
  <circle cx="252.5" cy="71.5" r="2.5" transform="rotate(-90 252.5 71.5)" fill="#0D58A6" fill-opacity=".1"/>
  <circle cx="252.5" cy="48.5" r="2.5" transform="rotate(-90 252.5 48.5)" fill="#0D58A6" fill-opacity=".1"/>
  <circle cx="252.5" cy="25.5" r="2.5" transform="rotate(-90 252.5 25.5)" fill="#0D58A6" fill-opacity=".1"/>
  <circle cx="252.5" cy="2.5" r="2.5" transform="rotate(-90 252.5 2.5)" fill="#0D58A6" fill-opacity=".1"/>
  <circle cx="275.5" cy="347.5" r="2.5" transform="rotate(-90 275.5 347.5)" fill="#0D58A6" fill-opacity=".1"/>
  <circle cx="275.5" cy="324.5" r="2.5" transform="rotate(-90 275.5 324.5)" fill="#0D58A6" fill-opacity=".1"/>
  <circle cx="275.5" cy="301.5" r="2.5" transform="rotate(-90 275.5 301.5)" fill="#0D58A6" fill-opacity=".1"/>
  <circle cx="275.5" cy="278.5" r="2.5" transform="rotate(-90 275.5 278.5)" fill="#0D58A6" fill-opacity=".1"/>
  <circle cx="275.5" cy="255.5" r="2.5" transform="rotate(-90 275.5 255.5)" fill="#0D58A6" fill-opacity=".1"/>
  <circle cx="275.5" cy="232.5" r="2.5" transform="rotate(-90 275.5 232.5)" fill="#0D58A6" fill-opacity=".1"/>
  <circle cx="275.5" cy="209.5" r="2.5" transform="rotate(-90 275.5 209.5)" fill="#0D58A6" fill-opacity=".1"/>
  <circle cx="275.5" cy="186.5" r="2.5" transform="rotate(-90 275.5 186.5)" fill="#0D58A6" fill-opacity=".1"/>
  <circle cx="275.5" cy="163.5" r="2.5" transform="rotate(-90 275.5 163.5)" fill="#0D58A6" fill-opacity=".1"/>
  <circle cx="275.5" cy="140.5" r="2.5" transform="rotate(-90 275.5 140.5)" fill="#0D58A6" fill-opacity=".1"/>
  <circle cx="275.5" cy="117.5" r="2.5" transform="rotate(-90 275.5 117.5)" fill="#0D58A6" fill-opacity=".1"/>
  <circle cx="275.5" cy="94.5" r="2.5" transform="rotate(-90 275.5 94.5)" fill="#0D58A6" fill-opacity=".1"/>
  <circle cx="275.5" cy="71.5" r="2.5" transform="rotate(-90 275.5 71.5)" fill="#0D58A6" fill-opacity=".1"/>
  <circle cx="275.5" cy="48.5" r="2.5" transform="rotate(-90 275.5 48.5)" fill="#0D58A6" fill-opacity=".1"/>
  <circle cx="275.5" cy="25.5" r="2.5" transform="rotate(-90 275.5 25.5)" fill="#0D58A6" fill-opacity=".1"/>
  <circle cx="275.5" cy="2.5" r="2.5" transform="rotate(-90 275.5 2.5)" fill="#0D58A6" fill-opacity=".1"/>
  <circle cx="298.5" cy="347.5" r="2.5" transform="rotate(-90 298.5 347.5)" fill="#0D58A6" fill-opacity=".1"/>
  <circle cx="298.5" cy="324.5" r="2.5" transform="rotate(-90 298.5 324.5)" fill="#0D58A6" fill-opacity=".1"/>
  <circle cx="298.5" cy="301.5" r="2.5" transform="rotate(-90 298.5 301.5)" fill="#0D58A6" fill-opacity=".1"/>
  <circle cx="298.5" cy="278.5" r="2.5" transform="rotate(-90 298.5 278.5)" fill="#0D58A6" fill-opacity=".1"/>
  <circle cx="298.5" cy="255.5" r="2.5" transform="rotate(-90 298.5 255.5)" fill="#0D58A6" fill-opacity=".1"/>
  <circle cx="298.5" cy="232.5" r="2.5" transform="rotate(-90 298.5 232.5)" fill="#0D58A6" fill-opacity=".1"/>
  <circle cx="298.5" cy="209.5" r="2.5" transform="rotate(-90 298.5 209.5)" fill="#0D58A6" fill-opacity=".1"/>
  <circle cx="298.5" cy="186.5" r="2.5" transform="rotate(-90 298.5 186.5)" fill="#0D58A6" fill-opacity=".1"/>
  <circle cx="298.5" cy="163.5" r="2.5" transform="rotate(-90 298.5 163.5)" fill="#0D58A6" fill-opacity=".1"/>
  <circle cx="298.5" cy="140.5" r="2.5" transform="rotate(-90 298.5 140.5)" fill="#0D58A6" fill-opacity=".1"/>
  <circle cx="298.5" cy="117.5" r="2.5" transform="rotate(-90 298.5 117.5)" fill="#0D58A6" fill-opacity=".1"/>
  <circle cx="298.5" cy="94.5" r="2.5" transform="rotate(-90 298.5 94.5)" fill="#0D58A6" fill-opacity=".1"/>
  <circle cx="298.5" cy="71.5" r="2.5" transform="rotate(-90 298.5 71.5)" fill="#0D58A6" fill-opacity=".1"/>
  <circle cx="298.5" cy="48.5" r="2.5" transform="rotate(-90 298.5 48.5)" fill="#0D58A6" fill-opacity=".1"/>
  <circle cx="298.5" cy="25.5" r="2.5" transform="rotate(-90 298.5 25.5)" fill="#0D58A6" fill-opacity=".1"/>
  <circle cx="298.5" cy="2.5" r="2.5" transform="rotate(-90 298.5 2.5)" fill="#0D58A6" fill-opacity=".1"/>
</svg>
