<svg width="104" height="104" fill="none" xmlns="http://www.w3.org/2000/svg">
  <g clip-path="url(#clip0)" fill="#0963C1">
    <path d="M71.7348 47.1111h-1.6443a18.5672 18.5672 0 0 0-1.8415-4.4464l1.162-1.162a2.2516 2.2516 0 0 0 .6632-1.6019c0-.6054-.2355-1.1741-.6632-1.6027l-3.7099-3.7099c-.8555-.8547-2.3475-.8563-3.2047 0l-1.1619 1.1619a18.6227 18.6227 0 0 0-4.4456-1.8406v-1.6443c0-1.2491-1.0161-2.2652-2.2652-2.2652h-5.2474c-1.2491 0-2.2652 1.0161-2.2652 2.2652v1.6443a18.6078 18.6078 0 0 0-4.4464 1.8415l-1.162-1.162c-.8563-.8571-2.3491-.8555-3.2046 0l-3.7099 3.7099c-.4278.4278-.6632.9973-.6632 1.6027 0 .6046.2354 1.1734.6632 1.602l1.1619 1.1619a18.5495 18.5495 0 0 0-1.8406 4.4456h-1.6443c-1.2491 0-2.2652 1.0161-2.2652 2.2652v5.2466c0 1.2499 1.0161 2.266 2.2652 2.266h1.6443a18.6078 18.6078 0 0 0 1.8415 4.4464l-1.162 1.162a2.2516 2.2516 0 0 0-.6632 1.6019c0 .6054.2355 1.1741.6632 1.6027l3.7099 3.7099c.8555.8563 2.3483.8572 3.2047 0l1.1619-1.1619a18.6444 18.6444 0 0 0 4.4464 1.8414v1.6443c0 1.2491 1.0161 2.2652 2.2652 2.2652h5.2466c1.2491 0 2.2652-1.0161 2.2652-2.2652v-1.6443a18.6116 18.6116 0 0 0 4.4464-1.8414l1.162 1.1619c.8571.8572 2.3483.8555 3.2046 0l3.7099-3.7099c.4278-.4277.6632-.9973.6632-1.6027 0-.6046-.2354-1.1734-.6632-1.6019l-1.1619-1.162a18.6444 18.6444 0 0 0 1.8414-4.4464h1.6443c1.2491 0 2.2652-1.0161 2.2652-2.2652v-5.2474c-.0008-1.2491-1.0169-2.2652-2.266-2.2652zm.6356 7.5126a.6364.6364 0 0 1-.6356.6356H68.808l-.1467.6298a17.016 17.016 0 0 1-2.1291 5.1423l-.3422.5492 2.0688 2.0688c.2485.2485.2485.6519 0 .8996l-3.7098 3.7098c-.2477.2477-.6511.2493-.8996 0L61.5806 66.19l-.5492.3422a16.979 16.979 0 0 1-5.1423 2.1291l-.6298.1467v2.9268a.6364.6364 0 0 1-.6356.6356h-5.2474a.6364.6364 0 0 1-.6356-.6356V68.808l-.6298-.1467a17.016 17.016 0 0 1-5.1423-2.1291l-.5492-.3422-2.0688 2.0688a.636.636 0 0 1-.8996 0l-3.7098-3.7098c-.2485-.2486-.2485-.6519 0-.8996l2.0688-2.0688-.3422-.5492a16.979 16.979 0 0 1-2.1291-5.1423l-.1467-.6298h-2.9268a.6364.6364 0 0 1-.6356-.6356v-5.2474a.6364.6364 0 0 1 .6356-.6356h2.9268l.1467-.6298a16.9992 16.9992 0 0 1 2.1291-5.1423l.3422-.5492-2.0688-2.0688c-.2485-.2485-.2485-.6519 0-.8996l3.7098-3.7098c.2477-.2477.6511-.2493.8996 0l2.0688 2.0688.5492-.3422a16.979 16.979 0 0 1 5.1423-2.1291l.6298-.1467v-2.9268a.6364.6364 0 0 1 .6356-.6356h5.2466c.3512 0 .6364.2852.6364.6356v2.9268l.6298.1467a17.016 17.016 0 0 1 5.1423 2.1291l.5492.3422 2.0688-2.0688a.636.636 0 0 1 .8996 0l3.7098 3.7098c.2485.2486.2485.6519 0 .8996L66.19 42.4194l.3422.5492a16.9623 16.9623 0 0 1 2.1291 5.1423l.1467.6298h2.9268a.6364.6364 0 0 1 .6356.6356v5.2474z"/>
    <path d="M52.0002 43.8518c-4.4929 0-8.1481 3.6553-8.1481 8.1482 0 4.4928 3.6552 8.1481 8.1481 8.1481S60.1483 56.4928 60.1483 52c0-4.4929-3.6552-8.1482-8.1481-8.1482zm0 14.6667c-3.5941 0-6.5185-2.9244-6.5185-6.5185 0-3.5942 2.9244-6.5186 6.5185-6.5186 3.5941 0 6.5185 2.9244 6.5185 6.5186 0 3.5941-2.9244 6.5185-6.5185 6.5185z"/>
  </g>
  <defs>
    <clipPath id="clip0">
      <path fill="#fff" transform="translate(30 30)" d="M0 0h44v44H0z"/>
    </clipPath>
  </defs>
</svg>
